<svg width="24" height="24" viewBox="0 0 24 24" fill="none" xmlns="http://www.w3.org/2000/svg">
<g id="Group 79">
<path id="Vector 13" d="M23.0769 22V12.9297C23.0769 12.4166 22.8797 11.9231 22.5261 11.5513L11.6008 0.0655699L0.558334 11.5498C0.200095 11.9223 0 12.4191 0 12.936V22C0 23.1046 0.89543 24 2 24H6.77926C7.88383 24 8.77926 23.1046 8.77926 22V18.0435C8.77926 16.9389 9.67469 16.0435 10.7793 16.0435H12.2977C13.4022 16.0435 14.2977 16.9389 14.2977 18.0435V22C14.2977 23.1046 15.1931 24 16.2977 24H21.0769C22.1815 24 23.0769 23.1046 23.0769 22Z" fill="#313131"/>
</g>
</svg>
