<svg width="27" height="27" viewBox="0 0 27 27" fill="none" xmlns="http://www.w3.org/2000/svg">
<path id="Vector 13" d="M26 24V13.9629C26 13.4365 25.7925 12.9313 25.4225 12.557L15.3667 2.38279C14.6057 1.61285 13.3703 1.58814 12.5791 2.32703L1.63488 12.5484C1.2299 12.9266 1 13.4559 1 14.01V24C1 25.1046 1.89543 26 3 26H8.51087C9.61544 26 10.5109 25.1046 10.5109 24V19.3804C10.5109 18.2759 11.4063 17.3804 12.5109 17.3804H14.4891C15.5937 17.3804 16.4891 18.2759 16.4891 19.3804V24C16.4891 25.1046 17.3846 26 18.4891 26H24C25.1046 26 26 25.1046 26 24Z" stroke="#FCB01B" stroke-width="2"/>
</svg>
